# xmcd
#
# Track frame offsets:
#	150
#	17775
#	38245
#	66947
#	85387
#	109670
#	127582
#	144367
#	164187
#	184365
#	203945
#	220557
#	239432
#	259045
#	277972
#	297827
#	317175
#	338782
#
# Disc length: 4740 seconds
# Revision: 0
# Processed by: cddbd v1.5.2PL0 Copyright (c) Steve Scherf et al.
# Submitted via: dBpowerAMP V12.0
#
DISCID=10128212
DTITLE=Diana Ross - The Motown Anthology, Disc 2
DYEAR=2001
DGENRE=R&B
TTITLE0=The Boss
TTITLE1=It's My House
TTITLE2=No One Gets The Prize
TTITLE3=Upside Down
TTITLE4=I'm Coming Out
TTITLE5=It's My Turn
TTITLE6=Stay With Me
TTITLE7=One More Chance
TTITLE8=Endless Love
TTITLE9=We Can Never Light That Old Flame Again
TTITLE10=Old Funky Rolls
TTITLE11=If We Hold On Together
TTITLE12=Workin' Overtime
TTITLE13=When You Tell Me That You Love Me
TTITLE14=The Best Years Of My Life
TTITLE15=Take Me Higher
TTITLE16=I Will Survive
TTITLE17=Until We Meet Again (Love To Infinity Remix)
EXTD=
EXTT0=
EXTT1=
EXTT2=
EXTT3=
EXTT4=
EXTT5=
EXTT6=
EXTT7=
EXTT8=
EXTT9=
EXTT10=
EXTT11=
EXTT12=
EXTT13=
EXTT14=
EXTT15=
EXTT16=
EXTT17=
PLAYORDER=
